<?xml version="1.0" encoding="utf-8"?>
<!-- Generator: Adobe Illustrator 25.0.0, SVG Export Plug-In . SVG Version: 6.00 Build 0)  -->
<svg version="1.1" id="Layer_1" xmlns="http://www.w3.org/2000/svg" xmlns:xlink="http://www.w3.org/1999/xlink" x="0px" y="0px"
	 viewBox="0 0 60 60" style="enable-background:new 0 0 60 60;" xml:space="preserve">
<style type="text/css">
	.st0{fill:#E44D26;}
	.st1{fill:#F16529;}
	.st2{fill:#EBEBEB;}
	.st3{fill:#FFFFFF;}
</style>
<g>
	<path class="st0" d="M53.85,2.95l-4.35,48.69l-19.54,5.42l-19.48-5.41L6.15,2.95H53.85L53.85,2.95z"/>
	<path class="st1" d="M30,52.91l15.79-4.38L49.5,6.93H30V52.91z"/>
	<path class="st2" d="M21.55,18.87H30V12.9H15.02l0.14,1.6l1.47,16.46H30v-5.97h-7.9L21.55,18.87z M22.9,33.95h-6l0.84,9.38
		l12.23,3.4L30,46.71V40.5l-0.03,0.01l-6.65-1.8L22.9,33.95L22.9,33.95z"/>
	<path class="st3" d="M29.98,30.96h7.35l-0.69,7.75l-6.66,1.8v6.21l12.24-3.39l0.09-1.01l1.4-15.72l0.15-1.6H29.98V30.96
		L29.98,30.96z M29.98,18.86v0.01h14.43l0.12-1.34l0.27-3.03l0.14-1.6H29.98V18.86L29.98,18.86z"/>
</g>
</svg>
