<?xml version="1.0" encoding="utf-8"?>
<!-- Generator: Adobe Illustrator 25.0.0, SVG Export Plug-In . SVG Version: 6.00 Build 0)  -->
<svg version="1.1" id="Layer_1" xmlns="http://www.w3.org/2000/svg" xmlns:xlink="http://www.w3.org/1999/xlink" x="0px" y="0px"
	 viewBox="0 0 60 60" style="enable-background:new 0 0 60 60;" xml:space="preserve">
<style type="text/css">
	.st0{display:none;}
	.st1{display:inline;fill:#E44D26;}
	.st2{display:inline;fill:#F16529;}
	.st3{display:inline;fill:#EBEBEB;}
	.st4{display:inline;fill:#FFFFFF;}
	.st5{display:inline;fill:#2062AF;}
	.st6{display:inline;fill:#3C9CD7;}
	.st7{display:inline;fill:url(#SVGID_1_);}
	.st8{display:inline;fill:url(#SVGID_2_);}
	.st9{display:inline;fill:url(#SVGID_3_);}
	.st10{display:inline;opacity:0.05;enable-background:new    ;}
	.st11{display:inline;fill:url(#SVGID_4_);}
	.st12{fill:#F7DF1E;}
</style>
<g class="st0">
	<path class="st1" d="M53.85,2.95l-4.35,48.69l-19.54,5.42l-19.48-5.41L6.15,2.95H53.85L53.85,2.95z"/>
	<path class="st2" d="M30,52.91l15.79-4.38L49.5,6.93H30V52.91z"/>
	<path class="st3" d="M21.55,18.87H30V12.9H15.02l0.14,1.6l1.47,16.46H30v-5.97h-7.9L21.55,18.87z M22.9,33.95h-6l0.84,9.38
		l12.23,3.4L30,46.71V40.5l-0.03,0.01l-6.65-1.8L22.9,33.95L22.9,33.95z"/>
	<path class="st4" d="M29.98,30.96h7.35l-0.69,7.75l-6.66,1.8v6.21l12.24-3.39l0.09-1.01l1.4-15.72l0.15-1.6H29.98V30.96
		L29.98,30.96z M29.98,18.86v0.01h14.43l0.12-1.34l0.27-3.03l0.14-1.6H29.98V18.86L29.98,18.86z"/>
</g>
<g id="Layer_2" class="st0">
	<path class="st5" d="M49.53,51.77L30,57.03l-19.53-5.26L5.97,2.96h48.06L49.53,51.77z"/>
	<path class="st6" d="M30,6.91v45.93l0.04,0.01l15.8-4.26l3.65-41.68L30,6.91L30,6.91z"/>
	<path class="st4" d="M29.98,19.12l-13.98,5.82l0.46,5.76l13.51-5.78l14.37-6.15l0.6-5.89L29.98,19.12L29.98,19.12z"/>
	
		<linearGradient id="SVGID_1_" gradientUnits="userSpaceOnUse" x1="-1040.1917" y1="-1591.3615" x2="-1040.1917" y2="-1593.8568" gradientTransform="matrix(4.6418 0 0 4.6418 4851.3579 7417.4829)">
		<stop  offset="0.387" style="stop-color:#D1D3D4;stop-opacity:0"/>
		<stop  offset="1" style="stop-color:#D1D3D4"/>
	</linearGradient>
	<path class="st7" d="M16.01,24.94l0.46,5.76l13.51-5.78v-5.81L16.01,24.94z"/>
	
		<linearGradient id="SVGID_2_" gradientUnits="userSpaceOnUse" x1="-1037.0739" y1="-1592.6061" x2="-1037.0739" y2="-1595.2" gradientTransform="matrix(4.6418 0 0 4.6418 4851.3579 7417.4829)">
		<stop  offset="0.387" style="stop-color:#D1D3D4;stop-opacity:0"/>
		<stop  offset="1" style="stop-color:#D1D3D4"/>
	</linearGradient>
	<path class="st8" d="M44.95,12.88l-14.97,6.23v5.81l14.37-6.15L44.95,12.88z"/>
	
		<linearGradient id="SVGID_3_" gradientUnits="userSpaceOnUse" x1="-1041.6924" y1="-1590.2485" x2="-1035.6991" y2="-1590.2485" gradientTransform="matrix(4.6418 0 0 4.6418 4851.3579 7417.4829)">
		<stop  offset="0" style="stop-color:#E8E7E5"/>
		<stop  offset="1" style="stop-color:#FFFFFF"/>
	</linearGradient>
	<path class="st9" d="M16.03,24.94l0.46,5.76l20.73,0.07l-0.46,7.68l-6.82,1.92l-6.56-1.66l-0.4-4.77h-6.09l0.79,9.21L30,46.79
		l12.25-3.58l1.59-18.28H16.03z"/>
	<path class="st10" d="M29.98,24.94H16.01l0.46,5.76l13.51,0.04L29.98,24.94L29.98,24.94z M29.98,40.35l-0.07,0.02l-6.56-1.66
		l-0.4-4.77h-6.09l0.79,9.21l12.32,3.64V40.35z"/>
	
		<linearGradient id="SVGID_4_" gradientUnits="userSpaceOnUse" x1="-1041.9681" y1="-1594.5649" x2="-1035.4614" y2="-1594.5649" gradientTransform="matrix(4.6418 0 0 4.6418 4851.3579 7417.4829)">
		<stop  offset="0" style="stop-color:#E8E7E5"/>
		<stop  offset="1" style="stop-color:#FFFFFF"/>
	</linearGradient>
	<path class="st11" d="M14.75,12.88h30.2l-0.6,5.89H15.48L14.75,12.88L14.75,12.88z"/>
	<path class="st10" d="M29.98,12.88H14.75l0.73,5.89h14.51L29.98,12.88L29.98,12.88z"/>
</g>
<g id="Layer_3">
	<path class="st12" d="M5.97,5.97h48.06v48.06H5.97V5.97z"/>
	<path d="M18.61,46.13l3.68-2.23c0.71,1.26,1.36,2.32,2.9,2.32c1.48,0,2.42-0.58,2.42-2.84V28.03h4.52v15.42
		c0,4.68-2.74,6.81-6.74,6.81C21.77,50.26,19.67,48.39,18.61,46.13 M34.58,45.65l3.68-2.13c0.97,1.58,2.23,2.74,4.45,2.74
		c1.87,0,3.07-0.94,3.07-2.23c0-1.55-1.23-2.1-3.29-3l-1.13-0.48c-3.26-1.39-5.42-3.13-5.42-6.81c0-3.39,2.58-5.97,6.61-5.97
		c2.87,0,4.94,1,6.42,3.61l-3.52,2.26c-0.77-1.39-1.61-1.94-2.9-1.94c-1.32,0-2.16,0.84-2.16,1.94c0,1.36,0.84,1.9,2.77,2.74
		l1.13,0.48c3.84,1.65,6,3.32,6,7.1c0,4.07-3.19,6.29-7.49,6.29C38.61,50.26,35.9,48.26,34.58,45.65"/>
</g>
</svg>
