<?xml version="1.0" encoding="utf-8"?>
<!-- Generator: Adobe Illustrator 25.0.0, SVG Export Plug-In . SVG Version: 6.00 Build 0)  -->
<svg version="1.1" id="Layer_1" xmlns="http://www.w3.org/2000/svg" xmlns:xlink="http://www.w3.org/1999/xlink" x="0px" y="0px"
	 viewBox="0 0 60 60" style="enable-background:new 0 0 60 60;" xml:space="preserve">
<style type="text/css">
	.st0{display:none;}
	.st1{display:inline;fill:#E44D26;}
	.st2{display:inline;fill:#F16529;}
	.st3{display:inline;fill:#EBEBEB;}
	.st4{display:inline;fill:#FFFFFF;}
	.st5{display:inline;fill:#2062AF;}
	.st6{display:inline;fill:#3C9CD7;}
	.st7{display:inline;fill:url(#SVGID_1_);}
	.st8{display:inline;fill:url(#SVGID_2_);}
	.st9{display:inline;fill:url(#SVGID_3_);}
	.st10{display:inline;opacity:0.05;enable-background:new    ;}
	.st11{display:inline;fill:url(#SVGID_4_);}
	.st12{display:inline;fill:#F7DF1E;}
	.st13{display:inline;}
	.st14{display:inline;fill:#CF649A;}
	.st15{display:inline;fill:#53C1DE;}
	.st16{fill:url(#SVGID_5_);}
	.st17{fill:url(#SVGID_6_);}
	.st18{fill:url(#SVGID_7_);}
	.st19{fill:url(#SVGID_8_);}
</style>
<g class="st0">
	<path class="st1" d="M53.85,2.95l-4.35,48.69l-19.54,5.42l-19.48-5.41L6.15,2.95H53.85L53.85,2.95z"/>
	<path class="st2" d="M30,52.91l15.79-4.38L49.5,6.93H30V52.91z"/>
	<path class="st3" d="M21.55,18.87H30V12.9H15.02l0.14,1.6l1.47,16.46H30v-5.97h-7.9L21.55,18.87z M22.9,33.95h-6l0.84,9.38
		l12.23,3.4L30,46.71V40.5l-0.03,0.01l-6.65-1.8L22.9,33.95L22.9,33.95z"/>
	<path class="st4" d="M29.98,30.96h7.35l-0.69,7.75l-6.66,1.8v6.21l12.24-3.39l0.09-1.01l1.4-15.72l0.15-1.6H29.98V30.96
		L29.98,30.96z M29.98,18.86v0.01h14.43l0.12-1.34l0.27-3.03l0.14-1.6H29.98V18.86L29.98,18.86z"/>
</g>
<g id="Layer_2" class="st0">
	<path class="st5" d="M49.53,51.77L30,57.03l-19.53-5.26L5.97,2.96h48.06L49.53,51.77z"/>
	<path class="st6" d="M30,6.91v45.93l0.04,0.01l15.8-4.26l3.65-41.68L30,6.91L30,6.91z"/>
	<path class="st4" d="M29.98,19.12l-13.98,5.82l0.46,5.76l13.51-5.78l14.37-6.15l0.6-5.89L29.98,19.12L29.98,19.12z"/>
	
		<linearGradient id="SVGID_1_" gradientUnits="userSpaceOnUse" x1="-1040.1917" y1="-1591.3615" x2="-1040.1917" y2="-1593.8568" gradientTransform="matrix(4.6418 0 0 4.6418 4851.3579 7417.4829)">
		<stop  offset="0.387" style="stop-color:#D1D3D4;stop-opacity:0"/>
		<stop  offset="1" style="stop-color:#D1D3D4"/>
	</linearGradient>
	<path class="st7" d="M16.01,24.94l0.46,5.76l13.51-5.78v-5.81L16.01,24.94z"/>
	
		<linearGradient id="SVGID_2_" gradientUnits="userSpaceOnUse" x1="-1037.0739" y1="-1592.6061" x2="-1037.0739" y2="-1595.2" gradientTransform="matrix(4.6418 0 0 4.6418 4851.3579 7417.4829)">
		<stop  offset="0.387" style="stop-color:#D1D3D4;stop-opacity:0"/>
		<stop  offset="1" style="stop-color:#D1D3D4"/>
	</linearGradient>
	<path class="st8" d="M44.95,12.88l-14.97,6.23v5.81l14.37-6.15L44.95,12.88z"/>
	
		<linearGradient id="SVGID_3_" gradientUnits="userSpaceOnUse" x1="-1041.6924" y1="-1590.2485" x2="-1035.6991" y2="-1590.2485" gradientTransform="matrix(4.6418 0 0 4.6418 4851.3579 7417.4829)">
		<stop  offset="0" style="stop-color:#E8E7E5"/>
		<stop  offset="1" style="stop-color:#FFFFFF"/>
	</linearGradient>
	<path class="st9" d="M16.03,24.94l0.46,5.76l20.73,0.07l-0.46,7.68l-6.82,1.92l-6.56-1.66l-0.4-4.77h-6.09l0.79,9.21L30,46.79
		l12.25-3.58l1.59-18.28H16.03z"/>
	<path class="st10" d="M29.98,24.94H16.01l0.46,5.76l13.51,0.04L29.98,24.94L29.98,24.94z M29.98,40.35l-0.07,0.02l-6.56-1.66
		l-0.4-4.77h-6.09l0.79,9.21l12.32,3.64V40.35z"/>
	
		<linearGradient id="SVGID_4_" gradientUnits="userSpaceOnUse" x1="-1041.9681" y1="-1594.5649" x2="-1035.4614" y2="-1594.5649" gradientTransform="matrix(4.6418 0 0 4.6418 4851.3579 7417.4829)">
		<stop  offset="0" style="stop-color:#E8E7E5"/>
		<stop  offset="1" style="stop-color:#FFFFFF"/>
	</linearGradient>
	<path class="st11" d="M14.75,12.88h30.2l-0.6,5.89H15.48L14.75,12.88L14.75,12.88z"/>
	<path class="st10" d="M29.98,12.88H14.75l0.73,5.89h14.51L29.98,12.88L29.98,12.88z"/>
</g>
<g id="Layer_3" class="st0">
	<path class="st12" d="M5.97,5.97h48.06v48.06H5.97V5.97z"/>
	<path class="st13" d="M18.61,46.13l3.68-2.23c0.71,1.26,1.36,2.32,2.9,2.32c1.48,0,2.42-0.58,2.42-2.84V28.03h4.52v15.42
		c0,4.68-2.74,6.81-6.74,6.81C21.77,50.26,19.67,48.39,18.61,46.13 M34.58,45.65l3.68-2.13c0.97,1.58,2.23,2.74,4.45,2.74
		c1.87,0,3.07-0.94,3.07-2.23c0-1.55-1.23-2.1-3.29-3l-1.13-0.48c-3.26-1.39-5.42-3.13-5.42-6.81c0-3.39,2.58-5.97,6.61-5.97
		c2.87,0,4.94,1,6.42,3.61l-3.52,2.26c-0.77-1.39-1.61-1.94-2.9-1.94c-1.32,0-2.16,0.84-2.16,1.94c0,1.36,0.84,1.9,2.77,2.74
		l1.13,0.48c3.84,1.65,6,3.32,6,7.1c0,4.07-3.19,6.29-7.49,6.29C38.61,50.26,35.9,48.26,34.58,45.65"/>
</g>
<g id="Layer_4" class="st0">
	<path class="st14" d="M47.37,31.2c-1.67,0.01-3.12,0.41-4.34,1.01c-0.45-0.89-0.9-1.66-0.97-2.24c-0.08-0.67-0.19-1.08-0.08-1.89
		c0.1-0.8,0.57-1.94,0.57-2.04c-0.01-0.08-0.1-0.5-1.07-0.5c-0.96-0.01-1.8,0.19-1.89,0.44c-0.09,0.25-0.28,0.83-0.4,1.43
		c-0.17,0.88-1.93,3.99-2.93,5.63c-0.33-0.64-0.61-1.2-0.66-1.65c-0.08-0.67-0.19-1.08-0.08-1.89c0.1-0.8,0.57-1.94,0.57-2.04
		c-0.01-0.08-0.1-0.5-1.07-0.5c-0.96-0.01-1.8,0.19-1.89,0.44c-0.09,0.25-0.2,0.85-0.4,1.43c-0.2,0.58-2.53,5.78-3.14,7.13
		c-0.31,0.69-0.58,1.24-0.78,1.62c-0.2,0.37-0.01,0.03-0.03,0.07c-0.17,0.32-0.26,0.5-0.26,0.5v0.01c-0.13,0.23-0.27,0.46-0.34,0.46
		c-0.05,0-0.14-0.63,0.02-1.49c0.35-1.8,1.19-4.62,1.18-4.72c0-0.05,0.16-0.54-0.54-0.79c-0.68-0.25-0.93,0.17-0.98,0.17
		c-0.06,0-0.1,0.15-0.1,0.15s0.76-3.17-1.45-3.17c-1.38,0-3.29,1.51-4.24,2.88c-0.6,0.33-1.87,1.02-3.22,1.76
		c-0.51,0.28-1.05,0.58-1.55,0.85l-0.1-0.11c-2.67-2.85-7.62-4.87-7.41-8.7c0.07-1.39,0.56-5.07,9.5-9.52
		c7.32-3.65,13.18-2.65,14.2-0.42c1.45,3.18-3.13,9.09-10.74,9.94c-2.9,0.33-4.42-0.79-4.81-1.22c-0.4-0.44-0.46-0.46-0.61-0.37
		c-0.24,0.13-0.09,0.52,0,0.76c0.22,0.59,1.16,1.64,2.75,2.16c1.39,0.46,4.8,0.71,8.91-0.88c4.61-1.79,8.21-6.74,7.15-10.88
		c-1.08-4.22-8.07-5.6-14.68-3.25c-3.94,1.4-8.2,3.59-11.27,6.46c-3.65,3.4-4.23,6.38-3.98,7.61c0.85,4.4,6.92,7.27,9.35,9.4
		c-0.12,0.07-0.23,0.13-0.34,0.19c-1.22,0.6-5.84,3.02-7,5.58c-1.31,2.9,0.21,4.98,1.22,5.26c3.12,0.87,6.32-0.69,8.05-3.26
		c1.72-2.57,1.51-5.91,0.72-7.43l-0.03-0.06l0.95-0.56c0.62-0.36,1.22-0.7,1.76-0.99c-0.3,0.81-0.51,1.78-0.63,3.18
		c-0.13,1.65,0.54,3.78,1.43,4.62c0.39,0.36,0.86,0.37,1.15,0.37c1.03,0,1.5-0.85,2.01-1.87c0.64-1.24,1.2-2.68,1.2-2.68
		s-0.7,3.9,1.22,3.9c0.7,0,1.4-0.91,1.72-1.37v0.01c0,0,0.02-0.03,0.06-0.09c0.04-0.06,0.08-0.12,0.11-0.18v-0.02
		c0.28-0.49,0.91-1.6,1.84-3.44c1.21-2.37,2.37-5.35,2.37-5.35s0.11,0.73,0.46,1.93c0.21,0.71,0.65,1.49,1,2.24
		c-0.28,0.39-0.45,0.62-0.45,0.62l0.01,0.01c-0.22,0.3-0.48,0.62-0.74,0.93c-0.95,1.14-2.09,2.44-2.24,2.81
		c-0.18,0.44-0.14,0.77,0.21,1.03c0.25,0.19,0.7,0.22,1.18,0.19c0.86-0.06,1.46-0.27,1.76-0.4c0.47-0.17,1-0.42,1.51-0.79
		c0.93-0.69,1.51-1.67,1.45-2.98c-0.03-0.72-0.26-1.43-0.55-2.1c0.08-0.12,0.17-0.24,0.25-0.37c1.48-2.16,2.62-4.53,2.62-4.53
		s0.11,0.73,0.46,1.93c0.18,0.61,0.53,1.27,0.85,1.93c-1.38,1.13-2.25,2.44-2.55,3.3c-0.55,1.59-0.12,2.31,0.69,2.48
		c0.36,0.07,0.89-0.09,1.28-0.26c0.49-0.16,1.08-0.43,1.62-0.83c0.93-0.69,1.83-1.65,1.79-2.95c-0.03-0.6-0.19-1.19-0.4-1.75
		c1.18-0.49,2.7-0.77,4.64-0.53c4.16,0.49,4.98,3.09,4.82,4.17c-0.16,1.08-1.03,1.68-1.32,1.87c-0.29,0.18-0.38,0.24-0.36,0.37
		c0.04,0.2,0.17,0.19,0.42,0.15c0.35-0.06,2.19-0.89,2.26-2.89C54.14,33.98,51.7,31.17,47.37,31.2L47.37,31.2z M15.28,42.02
		c-1.37,1.51-3.31,2.08-4.13,1.59c-0.89-0.51-0.54-2.73,1.15-4.33c1.03-0.97,2.37-1.87,3.24-2.42c0.2-0.12,0.5-0.3,0.85-0.51
		c0.06-0.04,0.09-0.06,0.09-0.06c0.07-0.04,0.14-0.08,0.22-0.13C17.33,38.44,16.73,40.44,15.28,42.02L15.28,42.02z M25.33,35.18
		c-0.48,1.17-1.49,4.17-2.09,4c-0.52-0.14-0.84-2.41-0.1-4.66c0.37-1.13,1.17-2.48,1.64-3c0.76-0.84,1.58-1.12,1.79-0.78
		C26.8,31.2,25.63,34.45,25.33,35.18z M33.63,39.15c-0.21,0.1-0.39,0.18-0.48,0.12c-0.07-0.04,0.08-0.18,0.08-0.18
		s1.04-1.11,1.45-1.63c0.23-0.3,0.51-0.65,0.81-1.04v0.11C35.5,37.89,34.21,38.78,33.63,39.15L33.63,39.15z M40.02,37.69
		c-0.15-0.11-0.13-0.46,0.37-1.54c0.2-0.43,0.65-1.15,1.42-1.83c0.09,0.28,0.15,0.55,0.14,0.8C41.95,36.8,40.75,37.43,40.02,37.69z"
		/>
</g>
<g id="Layer_5" class="st0">
	<path class="st4" d="M2.82,29.85c0,4.06,3.96,7.84,10.21,9.98c-1.25,6.28-0.22,11.34,3.2,13.31c3.51,2.03,8.75,0.62,13.72-3.72
		c4.84,4.17,9.74,5.81,13.15,3.83c3.51-2.03,4.58-7.44,3.3-13.91c6.5-2.15,10.14-5.38,10.14-9.49c0-3.96-3.97-7.39-10.13-9.51
		c1.38-6.74,0.21-11.68-3.35-13.73c-3.43-1.98-8.38-0.25-13.3,4.02c-5.11-4.54-10.02-5.93-13.57-3.87
		c-3.43,1.99-4.41,7.14-3.16,13.53C6.99,22.4,2.82,25.91,2.82,29.85z"/>
	<path class="st15" d="M45.1,22.45c-0.51-0.17-1.02-0.34-1.54-0.48c0.09-0.35,0.16-0.7,0.24-1.05c1.16-5.64,0.4-10.19-2.19-11.69
		c-2.49-1.44-6.56,0.06-10.67,3.64c-0.41,0.35-0.8,0.72-1.19,1.09c-0.26-0.25-0.52-0.49-0.79-0.73c-4.31-3.83-8.63-5.44-11.22-3.94
		c-2.49,1.44-3.22,5.71-2.18,11.06c0.1,0.53,0.22,1.06,0.35,1.58c-0.61,0.17-1.2,0.36-1.77,0.56c-5.05,1.76-8.28,4.52-8.28,7.38
		c0,2.96,3.46,5.92,8.72,7.72c0.43,0.15,0.86,0.28,1.29,0.4c-0.14,0.56-0.27,1.13-0.37,1.7c-1,5.25-0.22,9.43,2.26,10.86
		c2.56,1.48,6.86-0.04,11.05-3.7c0.33-0.29,0.66-0.6,1-0.92c0.42,0.4,0.85,0.8,1.29,1.18c4.05,3.49,8.06,4.9,10.54,3.46
		c2.56-1.48,3.39-5.96,2.31-11.42c-0.08-0.42-0.18-0.84-0.29-1.28c0.3-0.09,0.6-0.18,0.89-0.28c5.47-1.81,9.03-4.74,9.03-7.74
		C53.58,27,50.25,24.22,45.1,22.45L45.1,22.45z"/>
	<path class="st4" d="M43.91,35.68c-0.26,0.09-0.53,0.17-0.8,0.25c-0.6-1.91-1.42-3.94-2.42-6.04c0.95-2.05,1.73-4.06,2.32-5.96
		c0.49,0.14,0.96,0.29,1.42,0.45c4.41,1.52,7.11,3.77,7.11,5.5C51.54,31.72,48.63,34.11,43.91,35.68L43.91,35.68z M41.95,39.56
		c0.48,2.41,0.55,4.59,0.23,6.3c-0.28,1.53-0.86,2.55-1.56,2.96c-1.5,0.87-4.72-0.26-8.19-3.24c-0.4-0.34-0.8-0.71-1.2-1.09
		c1.34-1.47,2.69-3.18,4-5.08c2.31-0.2,4.49-0.54,6.46-1C41.79,38.8,41.88,39.18,41.95,39.56L41.95,39.56z M22.14,48.66
		c-1.47,0.52-2.64,0.53-3.35,0.13c-1.5-0.87-2.13-4.22-1.28-8.71c0.1-0.53,0.22-1.06,0.35-1.58c1.95,0.43,4.12,0.74,6.43,0.93
		c1.32,1.86,2.7,3.56,4.09,5.06c-0.3,0.29-0.6,0.57-0.91,0.84C25.63,46.94,23.77,48.09,22.14,48.66L22.14,48.66z M15.26,35.66
		c-2.33-0.8-4.25-1.83-5.56-2.96c-1.18-1.01-1.78-2.02-1.78-2.84c0-1.74,2.59-3.95,6.91-5.46c0.54-0.19,1.09-0.36,1.64-0.52
		c0.6,1.94,1.38,3.97,2.33,6.02c-0.96,2.08-1.75,4.15-2.35,6.11C16.04,35.92,15.65,35.8,15.26,35.66z M17.57,19.96
		c-0.9-4.58-0.3-8.04,1.2-8.91c1.6-0.92,5.12,0.39,8.84,3.7c0.24,0.21,0.48,0.43,0.72,0.66c-1.39,1.49-2.76,3.18-4.06,5.03
		c-2.24,0.21-4.39,0.54-6.37,0.99C17.77,20.95,17.66,20.46,17.57,19.96L17.57,19.96z M38.14,25.04c-0.47-0.81-0.95-1.6-1.45-2.39
		c1.52,0.19,2.98,0.45,4.35,0.76c-0.41,1.32-0.92,2.7-1.53,4.11C39.07,26.69,38.62,25.86,38.14,25.04L38.14,25.04z M29.75,16.87
		c0.94,1.02,1.88,2.16,2.81,3.39c-1.88-0.09-3.76-0.09-5.64,0C27.85,19.04,28.8,17.9,29.75,16.87L29.75,16.87z M21.31,25.06
		c-0.47,0.81-0.92,1.63-1.35,2.47c-0.59-1.41-1.1-2.79-1.52-4.13c1.36-0.3,2.81-0.55,4.32-0.74C22.26,23.44,21.77,24.25,21.31,25.06
		z M22.81,37.24c-1.56-0.17-3.04-0.41-4.4-0.71c0.42-1.36,0.94-2.77,1.55-4.21c0.43,0.83,0.88,1.66,1.35,2.47
		C21.79,35.61,22.29,36.43,22.81,37.24z M29.81,43.02c-0.97-1.04-1.93-2.2-2.87-3.43c0.91,0.04,1.84,0.05,2.79,0.05
		c0.97,0,1.93-0.02,2.88-0.06C31.68,40.84,30.74,41.99,29.81,43.02z M39.53,32.24c0.64,1.45,1.18,2.86,1.6,4.2
		c-1.38,0.32-2.88,0.57-4.45,0.76c0.5-0.8,0.99-1.61,1.46-2.43C38.63,33.94,39.09,33.1,39.53,32.24L39.53,32.24z M36.39,33.75
		c-0.72,1.26-1.49,2.49-2.29,3.69c-1.42,0.1-2.88,0.15-4.37,0.15c-1.48,0-2.93-0.05-4.32-0.14c-0.82-1.2-1.6-2.44-2.33-3.7
		c-0.73-1.25-1.41-2.54-2.04-3.84c0.63-1.31,1.3-2.59,2.03-3.85v0c0.72-1.26,1.5-2.48,2.31-3.68c1.42-0.11,2.87-0.16,4.34-0.16
		c1.48,0,2.93,0.06,4.35,0.16c0.81,1.2,1.58,2.42,2.3,3.67c0.73,1.25,1.41,2.53,2.06,3.83C37.8,31.2,37.11,32.49,36.39,33.75
		L36.39,33.75z M40.59,11c1.6,0.92,2.22,4.64,1.21,9.51c-0.07,0.32-0.14,0.63-0.21,0.95c-1.98-0.46-4.13-0.8-6.38-1.01
		c-1.31-1.87-2.67-3.56-4.03-5.03c0.36-0.34,0.72-0.68,1.1-1.01C35.8,11.34,39.09,10.13,40.59,11L40.59,11z"/>
	<path class="st15" d="M29.73,25.61c2.35,0,4.26,1.91,4.26,4.26c0,2.35-1.91,4.26-4.26,4.26c-2.35,0-4.26-1.91-4.26-4.26
		C25.47,27.52,27.38,25.61,29.73,25.61"/>
</g>
<g id="Layer_6">
	
		<linearGradient id="SVGID_5_" gradientUnits="userSpaceOnUse" x1="-1042.9344" y1="-1353.7451" x2="-1040.7322" y2="-1349.0917" gradientTransform="matrix(8.3322 0 0 8.3322 8707.7393 11284.2705)">
		<stop  offset="0" style="stop-color:#A0CBFF"/>
		<stop  offset="0.394" style="stop-color:#A0CBFE"/>
		<stop  offset="0.583" style="stop-color:#8EC2FC"/>
		<stop  offset="0.784" style="stop-color:#83BCFB"/>
		<stop  offset="1" style="stop-color:#7FBAFB"/>
	</linearGradient>
	<path class="st16" d="M6.16,7.05h47.87v47.07H6.16V7.05z"/>
	
		<linearGradient id="SVGID_6_" gradientUnits="userSpaceOnUse" x1="-1042.1527" y1="-1352.9338" x2="-1040.908" y2="-1348.7975" gradientTransform="matrix(8.3322 0 0 8.3322 8707.7393 11284.2705)">
		<stop  offset="0" style="stop-color:#090058"/>
		<stop  offset="1" style="stop-color:#070033"/>
	</linearGradient>
	<path class="st17" d="M9.97,10.79h40.25v39.58H9.97V10.79z"/>
	<g>
		
			<linearGradient id="SVGID_7_" gradientUnits="userSpaceOnUse" x1="-1043.6194" y1="-1353.4974" x2="-1041.4171" y2="-1348.8441" gradientTransform="matrix(8.3322 0 0 8.3322 8707.7393 11284.2705)">
			<stop  offset="0" style="stop-color:#A0CBFF"/>
			<stop  offset="0.394" style="stop-color:#A0CBFE"/>
			<stop  offset="0.583" style="stop-color:#8EC2FC"/>
			<stop  offset="0.784" style="stop-color:#83BCFB"/>
			<stop  offset="1" style="stop-color:#7FBAFB"/>
		</linearGradient>
		<path class="st18" d="M17.73,20.32c0,0,3.03-0.08,5.52-0.08c2.52,0,4.31,0.59,5.52,1.63c1.15,0.98,1.93,2.66,1.93,4.57
			s-0.59,3.47-1.66,4.57c-1.39,1.42-3.02,2.26-5.79,2.37c-0.77,0.03-1.47,0.04-1.47,0.04v6.2h-4.04L17.73,20.32L17.73,20.32z
			 M21.78,29.98c0.44,0.04,0.71,0.02,1.37,0.01c2.17-0.03,3.51-1.35,3.51-3.34c0-1.79-1.1-3.26-3.19-3.34c-0.83-0.03-1.69,0-1.69,0
			V29.98z"/>
		
			<linearGradient id="SVGID_8_" gradientUnits="userSpaceOnUse" x1="-1042.365" y1="-1354.1051" x2="-1040.1541" y2="-1349.4332" gradientTransform="matrix(8.3322 0 0 8.3322 8707.7393 11284.2705)">
			<stop  offset="0" style="stop-color:#A0CBFF"/>
			<stop  offset="0.394" style="stop-color:#A0CBFE"/>
			<stop  offset="0.583" style="stop-color:#8EC2FC"/>
			<stop  offset="0.784" style="stop-color:#83BCFB"/>
			<stop  offset="1" style="stop-color:#7FBAFB"/>
		</linearGradient>
		<path class="st19" d="M32.24,35.3c0.82,0.5,2.74,1.25,4.05,1.25c1.34,0,1.89-0.47,1.89-1.21c0-0.74-0.44-1.51-2.1-2.07
			c-2.94-1-4.08-2.2-4.05-3.88c0-2.71,2.27-4.74,5.8-4.74c1.66,0,2.99,0.54,3.86,0.98v3.25c-0.64-0.35-2.49-1.14-3.71-1.14
			c-1.08,0-1.69,0.44-1.69,1.18c0,0.68,0.55,1.03,2.3,1.65c2.71,0.94,3.84,2.33,3.87,4.45c0,2.68-2.07,4.81-6.17,4.68
			c-1.41-0.04-2.97-0.6-4.05-1.19L32.24,35.3L32.24,35.3z"/>
	</g>
</g>
</svg>
